<?xml version="1.0" standalone="no"?>
<!DOCTYPE svg PUBLIC "-//W3C//DTD SVG 20010904//EN"
 "http://www.w3.org/TR/2001/REC-SVG-20010904/DTD/svg10.dtd">
<svg version="1.0" xmlns="http://www.w3.org/2000/svg"
 width="225.000000pt" height="225.000000pt" viewBox="0 0 225.000000 225.000000"
 preserveAspectRatio="xMidYMid meet">
<metadata>
Created by potrace 1.11, written by Peter Selinger 2001-2013
</metadata>
<g transform="translate(0.000000,225.000000) scale(0.100000,-0.100000)"
fill="#000000" stroke="none">
<path d="M1757 1087 l-27 -62 2 -425 3 -425 28 -3 27 -3 0 490 c0 270 -1 491
-3 491 -1 0 -15 -28 -30 -63z"/>
<path d="M460 658 c0 -427 2 -488 15 -488 13 0 15 58 15 463 -1 382 -3 466
-15 487 -13 22 -14 -35 -15 -462z"/>
<path d="M525 595 c0 -237 1 -332 2 -212 2 120 2 314 0 430 -1 117 -2 19 -2
-218z"/>
<path d="M1696 984 c-11 -28 -7 -802 4 -809 7 -4 10 135 10 409 0 229 -2 416
-4 416 -2 0 -7 -7 -10 -16z"/>
<path d="M582 559 c3 -356 4 -384 21 -387 16 -3 17 19 17 366 0 357 -1 369
-20 387 l-20 18 2 -384z"/>
<path d="M1618 893 l-28 -29 0 -347 0 -347 25 0 c14 0 28 6 30 13 3 6 4 175 3
375 l-3 363 -27 -28z"/>
<path d="M640 526 c0 -219 4 -347 10 -351 7 -4 10 113 10 344 0 227 -4 351
-10 351 -6 0 -10 -121 -10 -344z"/>
<path d="M1558 844 c-5 -4 -8 -158 -8 -343 0 -226 3 -332 10 -325 7 7 9 128 8
343 -2 183 -6 329 -10 325z"/>
<path d="M710 496 c0 -284 2 -326 15 -326 13 0 15 40 13 322 -2 246 -6 322
-15 326 -10 3 -13 -66 -13 -322z"/>
<path d="M1473 788 l-23 -11 0 -304 0 -303 25 0 24 0 3 315 c2 173 1 315 -2
314 -3 0 -15 -5 -27 -11z"/>
<path d="M774 480 c0 -173 2 -244 3 -157 2 86 2 228 0 315 -1 86 -3 15 -3
-158z"/>
<path d="M1414 465 c0 -165 2 -234 3 -153 2 81 2 216 0 300 -1 84 -3 18 -3
-147z"/>
<path d="M832 463 c3 -266 4 -288 21 -291 16 -3 17 14 15 285 -3 266 -4 288
-21 291 -16 3 -17 -14 -15 -285z"/>
<path d="M904 450 c0 -157 2 -221 3 -142 2 78 2 206 0 285 -1 78 -3 14 -3
-143z"/>
<path d="M1323 723 c-10 -3 -13 -69 -13 -279 l0 -274 25 0 25 0 0 280 c0 288
0 288 -37 273z"/>
<path d="M940 445 c0 -238 2 -275 15 -275 13 0 15 37 15 269 0 230 -2 270 -15
275 -13 5 -15 -29 -15 -269z"/>
<path d="M1274 440 c0 -151 2 -213 3 -138 2 76 2 200 0 275 -1 76 -3 14 -3
-137z"/>
<path d="M1030 435 l0 -265 25 0 25 0 0 265 0 265 -25 0 -25 0 0 -265z"/>
<path d="M1170 435 l0 -265 25 0 25 0 0 265 0 265 -25 0 -25 0 0 -265z"/>
<path d="M1134 430 c0 -146 2 -205 3 -132 2 72 2 192 0 265 -1 72 -3 13 -3
-133z"/>
</g>
</svg>
